#!OML:ASF H:\Terrain\Patient Classification 1\PLAYGROUND\JustinFriday\JustinFriday.ASF
:FULLY-SPECIFIED
:DEGREES
3164
root 11.8142 17.72 14.4382 361.862 -83.9626 0.0747034
lowerback 11.6476 1.07885 -0.815106
upperback 3.88516 1.26911 2.50276
thorax -2.54344 0.55632 2.89364
lowerneck -7.78259 -0.821596 -4.46041
upperneck -2.19723 -0.806456 -1.2987
head 0.621276 -0.433378 0.316593
rclavicle -8.15017e-015 -1.03368e-014
rhumerus -66.3163 -36.0197 -29.4466
rradius 12.1834
rwrist 11.4815
rhand -21.382 -28.218
rfingers 7.12502
rthumb 5.00553 -418.139
lclavicle -8.15017e-015 -1.03368e-014
lhumerus -59.1091 29.5867 45.7296
lradius 22.0735
lwrist -3.971
lhand -22.8869 2.84045
lfingers 7.12502
lthumb 3.55233 32.7906
rfemur -26.156 -1.21621 13.847
rtibia 31.0712
rfoot -4.90997 -15.9145
rtoes 11.0721
lfemur 4.88442 0.409182 -16.247
ltibia 18.0231
lfoot -18.0928 -6.2591
ltoes 1.95878
3165
root 11.8955 17.7196 14.4803 361.934 -84.0066 -0.0133358
lowerback 11.6649 1.07339 -0.783502
upperback 3.80669 1.26821 2.42411
thorax -2.63224 0.559283 2.79301
lowerneck -7.20993 -0.800265 -4.36315
upperneck -2.35771 -0.81838 -1.40431
head 0.473697 -0.433878 0.268274
rclavicle 1.39149e-015 -6.36111e-015
rhumerus -65.8801 -36.8821 -29.9116
rradius 13.0407
rwrist 11.8578
rhand -21.3063 -28.6997
rfingers 7.12502
rthumb 5.07864 -418.619
lclavicle 1.39149e-015 -6.36111e-015
lhumerus -58.2453 30.1185 46.0121
lradius 21.4884
lwrist -4.58738
lhand -23.0423 3.05355
lfingers 7.12502
lthumb 3.40228 33.0061
rfemur -26.1772 -1.2466 13.691
rtibia 30.7299
rfoot -5.19105 -16.2142
rtoes 9.38668
lfemur 4.57414 0.336104 -16.4779
ltibia 18.2145
lfoot -18.5768 -6.22017
ltoes 2.39452
3166
root 11.982 17.7191 14.5278 366.051 -83.9537 -4.03621
lowerback 11.5574 1.00578 -0.286108
upperback 3.71914 1.2388 2.43956
thorax -2.65309 0.546986 2.53227
lowerneck -7.10742 -0.820703 -4.4776
upperneck -2.06152 -0.827638 -1.20103
head 0.551821 -0.437603 0.350234
rclavicle 8.74653e-015 -3.97569e-015
rhumerus -65.2372 -38.0721 -30.1261
rradius 13.3054
rwrist 12.7743
rhand -21.2607 -29.3708
rfingers 7.12502
rthumb 5.12268 -419.289
lclavicle 8.74653e-015 -3.97569e-015
lhumerus -57.3234 30.854 46.2478
lradius 20.9213
lwrist -5.24269
lhand -22.9843 3.11232
lfingers 7.12502
lthumb 3.45828 33.064
rfemur -26.3427 -1.8118 14.0852
rtibia 30.4545
rfoot -5.4672 -15.9994
rtoes 7.43819
lfemur 4.17188 -0.0319345 -16.2955
ltibia 18.2923
lfoot -18.7143 -6.12532
ltoes 4.37906
3167
root 12.0719 17.7171 14.5748 370.495 -83.895 -8.40369
lowerback 11.4936 0.95732 0.188364
upperback 3.66889 1.2312 2.56047
thorax -2.66279 0.543032 2.39166
lowerneck -7.32865 -0.792244 -4.69235
upperneck -1.53047 -0.741532 -1.13042
head 0.756796 -0.401753 0.410772
rclavicle -2.32578e-014 -1.27222e-014
rhumerus -62.5011 -38.1354 -32.7395
rradius 12.8125
rwrist 11.3218
rhand -21.5371 -29.308
rfingers 7.12502
rthumb 4.85576 -419.232
lclavicle -2.32578e-014 -1.27222e-014
lhumerus -56.3141 31.687 46.7921
lradius 20.3344
lwrist -6.03294
lhand -22.9185 3.25855
lfingers 7.12502
lthumb 3.52181 33.2092
rfemur -26.5202 -2.10943 14.4582
rtibia 30.2273
rfoot -6.11582 -15.5286
rtoes 7.87398
lfemur 3.81085 -0.641268 -16.1205
ltibia 18.3467
lfoot -18.9257 -5.3837
ltoes 4.22724
3168
root 12.1593 17.7207 14.6132 372.004 -83.9659 -9.94842
lowerback 11.5677 1.00648 0.285769
upperback 3.61979 1.31092 2.5809
thorax -2.75595 0.583366 2.34599
lowerneck -7.35795 -0.773628 -4.67983
upperneck -1.08015 -0.697785 -1.21673
head 0.902971 -0.388079 0.383793
rclavicle -1.78906e-015 0
rhumerus -59.7519 -37.7633 -35.9373
rradius 12.8807
rwrist 8.96236
rhand -20.491 -29.5609
rfingers 7.12502
rthumb 5.86576 -419.46
lclavicle -1.78906e-015 0
lhumerus -55.1859 32.2035 47.5857
lradius 19.8604
lwrist -6.90919
lhand -22.2073 3.46829
lfingers 7.12502
lthumb 4.20861 33.4065
rfemur -26.5286 -1.74078 14.3727
rtibia 29.9564
rfoot -7.34697 -15.683
rtoes 9.31452
lfemur 3.45476 -0.20673 -16.0611
ltibia 18.5888
lfoot -19.2443 -5.38647
ltoes 2.67232
3169
root 12.2441 17.724 14.6484 372.463 -84.0634 -10.4301
lowerback 11.6428 1.08714 0.267532
upperback 3.54882 1.41938 2.50698
thorax -2.87387 0.639514 2.26271
lowerneck -7.41158 -0.805669 -4.5526
upperneck -0.573393 -0.727625 -1.18637
head 1.07364 -0.409786 0.371672
rclavicle 1.07344e-014 -7.95139e-015
rhumerus -57.1743 -37.2248 -39.2795
rradius 13.3343
rwrist 6.33782
rhand -19.375 -29.996
rfingers 7.12502
rthumb 6.94313 -419.862
lclavicle 1.07344e-014 -7.95139e-015
lhumerus -53.8319 32.3935 48.6392
lradius 19.4952
lwrist -7.68837
lhand -20.9759 3.88395
lfingers 7.12502
lthumb 5.39765 33.7952
rfemur -26.563 -1.765 14.3096
rtibia 29.6803
rfoot -8.11927 -16.0491
rtoes 8.62567
lfemur 3.02036 0.652064 -16.0229
ltibia 18.8861
lfoot -19.4137 -6.1408
ltoes 2.71094
3170
root 12.3288 17.7286 14.6824 375.505 -84.1377 -13.52
lowerback 11.7478 1.13202 0.468828
upperback 3.50152 1.50636 2.5729
thorax -2.98042 0.682254 2.20397
lowerneck -7.44551 -0.874094 -4.64363
upperneck -0.234211 -0.797642 -1.1294
head 1.19044 -0.449022 0.402958
rclavicle -2.127e-014 -7.15625e-015
rhumerus -54.8326 -37.0328 -41.8562
rradius 13.725
rwrist 4.79083
rhand -19.9151 -29.2938
rfingers 7.12502
rthumb 6.42177 -419.176
lclavicle -2.127e-014 -7.15625e-015
lhumerus -52.2597 32.3953 50.209
lradius 19.1118
lwrist -8.13067
lhand -20.4828 4.15537
lfingers 7.12502
lthumb 5.87371 34.054
rfemur -26.5888 -1.7457 14.5467
rtibia 29.4652
rfoot -8.60264 -16.3563
rtoes 7.79147
lfemur 2.65727 0.674277 -15.845
ltibia 19.155
lfoot -19.3973 -6.3659
ltoes 4.22721
